<svg width="20" height="20" viewBox="0 0 20 20" fill="none" xmlns="http://www.w3.org/2000/svg">
<path d="M8.82233 4.2436C9.161 4.19353 9.51038 4.16667 9.87022 4.16667C14.1244 4.16667 16.9159 7.9207 17.8538 9.40569C17.9673 9.58542 18.0241 9.67528 18.0558 9.81389C18.0797 9.91799 18.0797 10.0822 18.0558 10.1863C18.024 10.3249 17.9668 10.4154 17.8525 10.5963C17.6027 10.9918 17.2217 11.5476 16.717 12.1504M5.47347 5.59586C3.67175 6.81808 2.44858 8.51615 1.88746 9.4044C1.77344 9.58489 1.71644 9.67514 1.68466 9.81373C1.66079 9.91783 1.66078 10.082 1.68463 10.1861C1.7164 10.3247 1.77315 10.4146 1.88665 10.5943C2.82449 12.0793 5.61605 15.8333 9.87022 15.8333C11.5856 15.8333 13.0631 15.223 14.2772 14.3972M2.37022 2.5L17.3702 17.5M8.10245 8.23223C7.65004 8.68464 7.37022 9.30964 7.37022 10C7.37022 11.3807 8.48951 12.5 9.87022 12.5C10.5606 12.5 11.1856 12.2202 11.638 11.7678" stroke="#94A3B8" stroke-width="1.5" stroke-linecap="round" stroke-linejoin="round"/>
</svg>
